<svg xmlns="http://www.w3.org/2000/svg" width="16.166" height="15.435" viewBox="0 0 16.166 15.435"><defs><style>.a{fill:#fff;}</style></defs><g transform="translate(0 0)"><path class="a" d="M7.523,1.4a.626.626,0,0,1,1.122,0l2.013,4.079a.626.626,0,0,0,.472.342l4.5.654a.626.626,0,0,1,.347,1.067L12.72,10.715a.627.627,0,0,0-.18.554l.769,4.483a.626.626,0,0,1-.909.66L8.374,14.3a.625.625,0,0,0-.582,0L3.766,16.412a.626.626,0,0,1-.908-.66l.769-4.483a.626.626,0,0,0-.18-.554L.189,7.54A.626.626,0,0,1,.536,6.473l4.5-.654a.626.626,0,0,0,.471-.342Z" transform="translate(0 -1.049)"/></g></svg>